<mxfile host="app.diagrams.net" modified="2021-05-17T02:44:14.788Z" agent="5.0 (Windows NT 10.0; Win64; x64) AppleWebKit/537.36 (KHTML, like Gecko) Chrome/90.0.4430.212 Safari/537.36" etag="8lkgEun3mZZALgviUUQD" version="14.6.13" type="github">
  <diagram id="IA6vnJar6YpkLh92kGP5" name="Page-1">
    <mxGraphModel dx="905" dy="794" grid="1" gridSize="10" guides="1" tooltips="1" connect="1" arrows="1" fold="1" page="1" pageScale="1" pageWidth="827" pageHeight="1169" math="0" shadow="0">
      <root>
        <mxCell id="0" />
        <mxCell id="1" parent="0" />
        <mxCell id="X9iEGQulfITKtsvHbGKT-3" style="edgeStyle=orthogonalEdgeStyle;rounded=0;orthogonalLoop=1;jettySize=auto;html=1;" edge="1" parent="1" source="X9iEGQulfITKtsvHbGKT-1" target="X9iEGQulfITKtsvHbGKT-2">
          <mxGeometry relative="1" as="geometry" />
        </mxCell>
        <mxCell id="X9iEGQulfITKtsvHbGKT-5" style="edgeStyle=orthogonalEdgeStyle;rounded=0;orthogonalLoop=1;jettySize=auto;html=1;entryX=0;entryY=0.5;entryDx=0;entryDy=0;" edge="1" parent="1" source="X9iEGQulfITKtsvHbGKT-1" target="X9iEGQulfITKtsvHbGKT-4">
          <mxGeometry relative="1" as="geometry" />
        </mxCell>
        <mxCell id="X9iEGQulfITKtsvHbGKT-1" value="Class1" style="rounded=0;whiteSpace=wrap;html=1;" vertex="1" parent="1">
          <mxGeometry x="240" y="210" width="120" height="60" as="geometry" />
        </mxCell>
        <mxCell id="X9iEGQulfITKtsvHbGKT-2" value="Class2" style="rounded=0;whiteSpace=wrap;html=1;" vertex="1" parent="1">
          <mxGeometry x="240" y="400" width="120" height="60" as="geometry" />
        </mxCell>
        <mxCell id="X9iEGQulfITKtsvHbGKT-4" value="Class3" style="rounded=0;whiteSpace=wrap;html=1;" vertex="1" parent="1">
          <mxGeometry x="510" y="210" width="120" height="60" as="geometry" />
        </mxCell>
      </root>
    </mxGraphModel>
  </diagram>
</mxfile>
